<?xml version="1.0" encoding="UTF-8" standalone="no"?>
<!DOCTYPE svg PUBLIC "-//W3C//DTD SVG 1.1//EN"
 "http://www.w3.org/Graphics/SVG/1.1/DTD/svg11.dtd">
<!-- Generated by graphviz version 2.43.0 (0)
 -->
<!-- Title: callgraph Pages: 1 -->
<svg width="1267pt" height="620pt"
 viewBox="0.00 0.00 1267.00 620.00" xmlns="http://www.w3.org/2000/svg" xmlns:xlink="http://www.w3.org/1999/xlink">
<g id="graph0" class="graph" transform="scale(1 1) rotate(0) translate(4 616)">
<title>callgraph</title>
<polygon fill="white" stroke="transparent" points="-4,4 -4,-616 1263,-616 1263,4 -4,4"/>
<!-- fetchText -->
<g id="node1" class="node">
<title>fetchText</title>
<polygon fill="none" stroke="black" points="589,-396 521,-396 521,-360 589,-360 589,-396"/>
<text text-anchor="middle" x="555" y="-374.3" font-family="Times,serif" font-size="14.00">fetchText</text>
</g>
<!-- fetch -->
<g id="node2" class="node">
<title>fetch</title>
<polygon fill="none" stroke="black" points="685,-36 631,-36 631,0 685,0 685,-36"/>
<text text-anchor="middle" x="658" y="-14.3" font-family="Times,serif" font-size="14.00">fetch</text>
</g>
<!-- fetchText&#45;&gt;fetch -->
<g id="edge1" class="edge">
<title>fetchText&#45;&gt;fetch</title>
<path fill="none" stroke="black" d="M578.63,-359.97C609.04,-335.89 658,-288.75 658,-235 658,-235 658,-235 658,-161 658,-121 658,-74.65 658,-46.08"/>
<polygon fill="black" stroke="black" points="661.5,-46.05 658,-36.05 654.5,-46.05 661.5,-46.05"/>
</g>
<!-- fetchBinary -->
<g id="node3" class="node">
<title>fetchBinary</title>
<polygon fill="none" stroke="black" points="629.5,-108 548.5,-108 548.5,-72 629.5,-72 629.5,-108"/>
<text text-anchor="middle" x="589" y="-86.3" font-family="Times,serif" font-size="14.00">fetchBinary</text>
</g>
<!-- fetchBinary&#45;&gt;fetch -->
<g id="edge2" class="edge">
<title>fetchBinary&#45;&gt;fetch</title>
<path fill="none" stroke="black" d="M606.06,-71.7C614.5,-63.14 624.82,-52.66 634.04,-43.3"/>
<polygon fill="black" stroke="black" points="636.61,-45.68 641.14,-36.1 631.63,-40.77 636.61,-45.68"/>
</g>
<!-- fetchLooseGitObject -->
<g id="node4" class="node">
<title>fetchLooseGitObject</title>
<polygon fill="none" stroke="black" points="629.5,-180 498.5,-180 498.5,-144 629.5,-144 629.5,-180"/>
<text text-anchor="middle" x="564" y="-158.3" font-family="Times,serif" font-size="14.00">fetchLooseGitObject</text>
</g>
<!-- fetchLooseGitObject&#45;&gt;fetchBinary -->
<g id="edge3" class="edge">
<title>fetchLooseGitObject&#45;&gt;fetchBinary</title>
<path fill="none" stroke="black" d="M570.18,-143.7C573,-135.81 576.39,-126.3 579.52,-117.55"/>
<polygon fill="black" stroke="black" points="582.82,-118.7 582.89,-108.1 576.23,-116.34 582.82,-118.7"/>
</g>
<!-- listRefs -->
<g id="node5" class="node">
<title>listRefs</title>
<polygon fill="none" stroke="black" points="529,-468 471,-468 471,-432 529,-432 529,-468"/>
<text text-anchor="middle" x="500" y="-446.3" font-family="Times,serif" font-size="14.00">listRefs</text>
</g>
<!-- listRefs&#45;&gt;fetchText -->
<g id="edge4" class="edge">
<title>listRefs&#45;&gt;fetchText</title>
<path fill="none" stroke="black" d="M513.6,-431.7C520.12,-423.39 528.07,-413.28 535.25,-404.14"/>
<polygon fill="black" stroke="black" points="538.13,-406.13 541.56,-396.1 532.63,-401.81 538.13,-406.13"/>
</g>
<!-- readObject -->
<g id="node6" class="node">
<title>readObject</title>
<polygon fill="none" stroke="black" points="602,-252 526,-252 526,-216 602,-216 602,-252"/>
<text text-anchor="middle" x="564" y="-230.3" font-family="Times,serif" font-size="14.00">readObject</text>
</g>
<!-- readObject&#45;&gt;fetchLooseGitObject -->
<g id="edge5" class="edge">
<title>readObject&#45;&gt;fetchLooseGitObject</title>
<path fill="none" stroke="black" d="M564,-215.7C564,-207.98 564,-198.71 564,-190.11"/>
<polygon fill="black" stroke="black" points="567.5,-190.1 564,-180.1 560.5,-190.1 567.5,-190.1"/>
</g>
<!-- findInPack -->
<g id="node7" class="node">
<title>findInPack</title>
<polygon fill="none" stroke="black" points="480.5,-180 405.5,-180 405.5,-144 480.5,-144 480.5,-180"/>
<text text-anchor="middle" x="443" y="-158.3" font-family="Times,serif" font-size="14.00">findInPack</text>
</g>
<!-- readObject&#45;&gt;findInPack -->
<g id="edge6" class="edge">
<title>readObject&#45;&gt;findInPack</title>
<path fill="none" stroke="black" d="M534.4,-215.88C518.43,-206.64 498.54,-195.13 481.39,-185.21"/>
<polygon fill="black" stroke="black" points="483.12,-182.17 472.71,-180.19 479.62,-188.23 483.12,-182.17"/>
</g>
<!-- readPackedObject -->
<g id="node8" class="node">
<title>readPackedObject</title>
<polygon fill="none" stroke="black" points="359.5,-180 244.5,-180 244.5,-144 359.5,-144 359.5,-180"/>
<text text-anchor="middle" x="302" y="-158.3" font-family="Times,serif" font-size="14.00">readPackedObject</text>
</g>
<!-- readObject&#45;&gt;readPackedObject -->
<g id="edge7" class="edge">
<title>readObject&#45;&gt;readPackedObject</title>
<path fill="none" stroke="black" d="M525.86,-219.11C522.54,-218.02 519.22,-216.97 516,-216 467.47,-201.43 411.9,-187.76 369.55,-177.95"/>
<polygon fill="black" stroke="black" points="370.17,-174.5 359.64,-175.67 368.6,-181.32 370.17,-174.5"/>
</g>
<!-- hexToBytes -->
<g id="node12" class="node">
<title>hexToBytes</title>
<polygon fill="none" stroke="black" points="435.5,-108 354.5,-108 354.5,-72 435.5,-72 435.5,-108"/>
<text text-anchor="middle" x="395" y="-86.3" font-family="Times,serif" font-size="14.00">hexToBytes</text>
</g>
<!-- findInPack&#45;&gt;hexToBytes -->
<g id="edge11" class="edge">
<title>findInPack&#45;&gt;hexToBytes</title>
<path fill="none" stroke="black" d="M431.13,-143.7C425.5,-135.47 418.65,-125.48 412.43,-116.42"/>
<polygon fill="black" stroke="black" points="415.27,-114.37 406.73,-108.1 409.5,-118.33 415.27,-114.37"/>
</g>
<!-- equalBytes -->
<g id="node13" class="node">
<title>equalBytes</title>
<polygon fill="none" stroke="black" points="530.5,-108 453.5,-108 453.5,-72 530.5,-72 530.5,-108"/>
<text text-anchor="middle" x="492" y="-86.3" font-family="Times,serif" font-size="14.00">equalBytes</text>
</g>
<!-- findInPack&#45;&gt;equalBytes -->
<g id="edge12" class="edge">
<title>findInPack&#45;&gt;equalBytes</title>
<path fill="none" stroke="black" d="M455.11,-143.7C460.87,-135.47 467.86,-125.48 474.21,-116.42"/>
<polygon fill="black" stroke="black" points="477.16,-118.3 480.03,-108.1 471.42,-114.29 477.16,-118.3"/>
</g>
<!-- packType -->
<g id="node15" class="node">
<title>packType</title>
<polygon fill="none" stroke="black" points="336,-108 268,-108 268,-72 336,-72 336,-108"/>
<text text-anchor="middle" x="302" y="-86.3" font-family="Times,serif" font-size="14.00">packType</text>
</g>
<!-- readPackedObject&#45;&gt;packType -->
<g id="edge14" class="edge">
<title>readPackedObject&#45;&gt;packType</title>
<path fill="none" stroke="black" d="M302,-143.7C302,-135.98 302,-126.71 302,-118.11"/>
<polygon fill="black" stroke="black" points="305.5,-118.1 302,-108.1 298.5,-118.1 305.5,-118.1"/>
</g>
<!-- decompressPackedObject -->
<g id="node16" class="node">
<title>decompressPackedObject</title>
<polygon fill="none" stroke="black" points="249.5,-108 94.5,-108 94.5,-72 249.5,-72 249.5,-108"/>
<text text-anchor="middle" x="172" y="-86.3" font-family="Times,serif" font-size="14.00">decompressPackedObject</text>
</g>
<!-- readPackedObject&#45;&gt;decompressPackedObject -->
<g id="edge15" class="edge">
<title>readPackedObject&#45;&gt;decompressPackedObject</title>
<path fill="none" stroke="black" d="M270.2,-143.88C252.89,-134.55 231.28,-122.92 212.74,-112.94"/>
<polygon fill="black" stroke="black" points="214.39,-109.85 203.92,-108.19 211.07,-116.01 214.39,-109.85"/>
</g>
<!-- loadPackList -->
<g id="node9" class="node">
<title>loadPackList</title>
<polygon fill="none" stroke="black" points="634.5,-468 547.5,-468 547.5,-432 634.5,-432 634.5,-468"/>
<text text-anchor="middle" x="591" y="-446.3" font-family="Times,serif" font-size="14.00">loadPackList</text>
</g>
<!-- loadPackList&#45;&gt;fetchText -->
<g id="edge8" class="edge">
<title>loadPackList&#45;&gt;fetchText</title>
<path fill="none" stroke="black" d="M582.1,-431.7C578,-423.73 573.05,-414.1 568.51,-405.26"/>
<polygon fill="black" stroke="black" points="571.48,-403.4 563.8,-396.1 565.26,-406.6 571.48,-403.4"/>
</g>
<!-- readUint32BE -->
<g id="node10" class="node">
<title>readUint32BE</title>
<polygon fill="none" stroke="black" points="819.5,-396 724.5,-396 724.5,-360 819.5,-360 819.5,-396"/>
<text text-anchor="middle" x="772" y="-374.3" font-family="Times,serif" font-size="14.00">readUint32BE</text>
</g>
<!-- loadPack -->
<g id="node11" class="node">
<title>loadPack</title>
<polygon fill="none" stroke="black" points="729,-468 663,-468 663,-432 729,-432 729,-468"/>
<text text-anchor="middle" x="696" y="-446.3" font-family="Times,serif" font-size="14.00">loadPack</text>
</g>
<!-- loadPack&#45;&gt;fetch -->
<g id="edge9" class="edge">
<title>loadPack&#45;&gt;fetch</title>
<path fill="none" stroke="black" d="M696,-431.95C696,-405.29 696,-352.11 696,-307 696,-307 696,-307 696,-161 696,-119.63 680.77,-73.72 669.59,-45.61"/>
<polygon fill="black" stroke="black" points="672.72,-44.02 665.69,-36.09 666.24,-46.67 672.72,-44.02"/>
</g>
<!-- loadPack&#45;&gt;readUint32BE -->
<g id="edge10" class="edge">
<title>loadPack&#45;&gt;readUint32BE</title>
<path fill="none" stroke="black" d="M714.79,-431.7C724.17,-423.05 735.68,-412.45 745.91,-403.03"/>
<polygon fill="black" stroke="black" points="748.45,-405.45 753.43,-396.1 743.7,-400.3 748.45,-405.45"/>
</g>
<!-- parseInt -->
<g id="node14" class="node">
<title>parseInt</title>
<polygon fill="none" stroke="black" points="425,-36 365,-36 365,0 425,0 425,-36"/>
<text text-anchor="middle" x="395" y="-14.3" font-family="Times,serif" font-size="14.00">parseInt</text>
</g>
<!-- hexToBytes&#45;&gt;parseInt -->
<g id="edge13" class="edge">
<title>hexToBytes&#45;&gt;parseInt</title>
<path fill="none" stroke="black" d="M395,-71.7C395,-63.98 395,-54.71 395,-46.11"/>
<polygon fill="black" stroke="black" points="398.5,-46.1 395,-36.1 391.5,-46.1 398.5,-46.1"/>
</g>
<!-- decompressPackedObjectRaw -->
<g id="node17" class="node">
<title>decompressPackedObjectRaw</title>
<polygon fill="none" stroke="black" points="262,-36 82,-36 82,0 262,0 262,-36"/>
<text text-anchor="middle" x="172" y="-14.3" font-family="Times,serif" font-size="14.00">decompressPackedObjectRaw</text>
</g>
<!-- decompressPackedObject&#45;&gt;decompressPackedObjectRaw -->
<g id="edge16" class="edge">
<title>decompressPackedObject&#45;&gt;decompressPackedObjectRaw</title>
<path fill="none" stroke="black" d="M172,-71.7C172,-63.98 172,-54.71 172,-46.11"/>
<polygon fill="black" stroke="black" points="175.5,-46.1 172,-36.1 168.5,-46.1 175.5,-46.1"/>
</g>
<!-- parseCommit -->
<g id="node18" class="node">
<title>parseCommit</title>
<polygon fill="none" stroke="black" points="327.5,-252 236.5,-252 236.5,-216 327.5,-216 327.5,-252"/>
<text text-anchor="middle" x="282" y="-230.3" font-family="Times,serif" font-size="14.00">parseCommit</text>
</g>
<!-- loadRefs -->
<g id="node19" class="node">
<title>loadRefs</title>
<polygon fill="none" stroke="black" points="490.5,-540 425.5,-540 425.5,-504 490.5,-504 490.5,-540"/>
<text text-anchor="middle" x="458" y="-518.3" font-family="Times,serif" font-size="14.00">loadRefs</text>
</g>
<!-- loadRefs&#45;&gt;listRefs -->
<g id="edge17" class="edge">
<title>loadRefs&#45;&gt;listRefs</title>
<path fill="none" stroke="black" d="M468.38,-503.7C473.26,-495.56 479.19,-485.69 484.58,-476.7"/>
<polygon fill="black" stroke="black" points="487.59,-478.48 489.74,-468.1 481.59,-474.88 487.59,-478.48"/>
</g>
<!-- reportException -->
<g id="node20" class="node">
<title>reportException</title>
<polygon fill="none" stroke="black" points="158,-180 54,-180 54,-144 158,-144 158,-180"/>
<text text-anchor="middle" x="106" y="-158.3" font-family="Times,serif" font-size="14.00">reportException</text>
</g>
<!-- loadRefs&#45;&gt;reportException -->
<g id="edge18" class="edge">
<title>loadRefs&#45;&gt;reportException</title>
<path fill="none" stroke="black" d="M425.29,-515.88C333.81,-500.65 82,-452.09 82,-379 82,-379 82,-379 82,-305 82,-264.65 91.54,-218.74 98.59,-190.32"/>
<polygon fill="black" stroke="black" points="102.06,-190.88 101.14,-180.33 95.27,-189.15 102.06,-190.88"/>
</g>
<!-- selectRef -->
<g id="node21" class="node">
<title>selectRef</title>
<polygon fill="none" stroke="black" points="452.5,-468 385.5,-468 385.5,-432 452.5,-432 452.5,-468"/>
<text text-anchor="middle" x="419" y="-446.3" font-family="Times,serif" font-size="14.00">selectRef</text>
</g>
<!-- loadRefs&#45;&gt;selectRef -->
<g id="edge19" class="edge">
<title>loadRefs&#45;&gt;selectRef</title>
<path fill="none" stroke="black" d="M448.36,-503.7C443.87,-495.64 438.44,-485.89 433.48,-476.98"/>
<polygon fill="black" stroke="black" points="436.45,-475.14 428.53,-468.1 430.34,-478.54 436.45,-475.14"/>
</g>
<!-- func -->
<g id="node37" class="node">
<title>func</title>
<polygon fill="none" stroke="black" points="76,-108 22,-108 22,-72 76,-72 76,-108"/>
<text text-anchor="middle" x="49" y="-86.3" font-family="Times,serif" font-size="14.00">func</text>
</g>
<!-- reportException&#45;&gt;func -->
<g id="edge46" class="edge">
<title>reportException&#45;&gt;func</title>
<path fill="none" stroke="black" d="M91.91,-143.7C85.08,-135.3 76.74,-125.07 69.24,-115.86"/>
<polygon fill="black" stroke="black" points="71.96,-113.65 62.93,-108.1 66.53,-118.07 71.96,-113.65"/>
</g>
<!-- selectRef&#45;&gt;fetchText -->
<g id="edge20" class="edge">
<title>selectRef&#45;&gt;fetchText</title>
<path fill="none" stroke="black" d="M452.27,-431.88C470.46,-422.51 493.19,-410.81 512.64,-400.8"/>
<polygon fill="black" stroke="black" points="514.31,-403.88 521.6,-396.19 511.11,-397.65 514.31,-403.88"/>
</g>
<!-- loadMoreCommits -->
<g id="node22" class="node">
<title>loadMoreCommits</title>
<polygon fill="none" stroke="black" points="473.5,-396 352.5,-396 352.5,-360 473.5,-360 473.5,-396"/>
<text text-anchor="middle" x="413" y="-374.3" font-family="Times,serif" font-size="14.00">loadMoreCommits</text>
</g>
<!-- selectRef&#45;&gt;loadMoreCommits -->
<g id="edge21" class="edge">
<title>selectRef&#45;&gt;loadMoreCommits</title>
<path fill="none" stroke="black" d="M417.52,-431.7C416.86,-423.98 416.06,-414.71 415.32,-406.11"/>
<polygon fill="black" stroke="black" points="418.81,-405.77 414.47,-396.1 411.83,-406.37 418.81,-405.77"/>
</g>
<!-- loadMoreCommits&#45;&gt;readObject -->
<g id="edge22" class="edge">
<title>loadMoreCommits&#45;&gt;readObject</title>
<path fill="none" stroke="black" d="M473.64,-360.77C494.44,-352.63 516.38,-340.82 532,-324 547.84,-306.95 555.95,-281.49 560.03,-262.17"/>
<polygon fill="black" stroke="black" points="563.51,-262.63 561.91,-252.15 556.63,-261.34 563.51,-262.63"/>
</g>
<!-- loadMoreCommits&#45;&gt;parseCommit -->
<g id="edge23" class="edge">
<title>loadMoreCommits&#45;&gt;parseCommit</title>
<path fill="none" stroke="black" d="M411.05,-359.72C408.06,-340.28 400.67,-308.72 383,-288 370.75,-273.64 353.61,-262.62 336.93,-254.45"/>
<polygon fill="black" stroke="black" points="338.29,-251.22 327.74,-250.2 335.35,-257.58 338.29,-251.22"/>
</g>
<!-- renderCommit -->
<g id="node23" class="node">
<title>renderCommit</title>
<polygon fill="none" stroke="black" points="207.5,-324 110.5,-324 110.5,-288 207.5,-288 207.5,-324"/>
<text text-anchor="middle" x="159" y="-302.3" font-family="Times,serif" font-size="14.00">renderCommit</text>
</g>
<!-- loadMoreCommits&#45;&gt;renderCommit -->
<g id="edge24" class="edge">
<title>loadMoreCommits&#45;&gt;renderCommit</title>
<path fill="none" stroke="black" d="M352.43,-360.97C316,-351.25 268.47,-338.43 217.59,-324.14"/>
<polygon fill="black" stroke="black" points="218.29,-320.7 207.71,-321.36 216.39,-327.44 218.29,-320.7"/>
</g>
<!-- selectCommit -->
<g id="node24" class="node">
<title>selectCommit</title>
<polygon fill="none" stroke="black" points="523.5,-324 430.5,-324 430.5,-288 523.5,-288 523.5,-324"/>
<text text-anchor="middle" x="477" y="-302.3" font-family="Times,serif" font-size="14.00">selectCommit</text>
</g>
<!-- loadMoreCommits&#45;&gt;selectCommit -->
<g id="edge25" class="edge">
<title>loadMoreCommits&#45;&gt;selectCommit</title>
<path fill="none" stroke="black" d="M428.82,-359.7C436.57,-351.22 446.04,-340.86 454.52,-331.58"/>
<polygon fill="black" stroke="black" points="457.2,-333.85 461.36,-324.1 452.03,-329.12 457.2,-333.85"/>
</g>
<!-- updateLoadMoreButton -->
<g id="node25" class="node">
<title>updateLoadMoreButton</title>
<polygon fill="none" stroke="black" points="374,-324 226,-324 226,-288 374,-288 374,-324"/>
<text text-anchor="middle" x="300" y="-302.3" font-family="Times,serif" font-size="14.00">updateLoadMoreButton</text>
</g>
<!-- loadMoreCommits&#45;&gt;updateLoadMoreButton -->
<g id="edge26" class="edge">
<title>loadMoreCommits&#45;&gt;updateLoadMoreButton</title>
<path fill="none" stroke="black" d="M385.36,-359.88C370.58,-350.72 352.21,-339.34 336.3,-329.48"/>
<polygon fill="black" stroke="black" points="338.09,-326.48 327.75,-324.19 334.41,-332.43 338.09,-326.48"/>
</g>
<!-- renderCommit&#45;&gt;reportException -->
<g id="edge28" class="edge">
<title>renderCommit&#45;&gt;reportException</title>
<path fill="none" stroke="black" d="M152.61,-287.87C143.49,-263.46 126.69,-218.43 115.94,-189.64"/>
<polygon fill="black" stroke="black" points="119.19,-188.33 112.42,-180.19 112.63,-190.78 119.19,-188.33"/>
</g>
<!-- selectCommit&#45;&gt;readObject -->
<g id="edge29" class="edge">
<title>selectCommit&#45;&gt;readObject</title>
<path fill="none" stroke="black" d="M498.51,-287.7C509.46,-278.88 522.95,-268.03 534.82,-258.47"/>
<polygon fill="black" stroke="black" points="537.14,-261.1 542.74,-252.1 532.76,-255.65 537.14,-261.1"/>
</g>
<!-- selectCommit&#45;&gt;parseCommit -->
<g id="edge30" class="edge">
<title>selectCommit&#45;&gt;parseCommit</title>
<path fill="none" stroke="black" d="M430.29,-288.23C402.35,-278.2 366.69,-265.4 337.34,-254.87"/>
<polygon fill="black" stroke="black" points="338.25,-251.47 327.65,-251.39 335.88,-258.06 338.25,-251.47"/>
</g>
<!-- parseTree -->
<g id="node26" class="node">
<title>parseTree</title>
<polygon fill="none" stroke="black" points="507.5,-252 438.5,-252 438.5,-216 507.5,-216 507.5,-252"/>
<text text-anchor="middle" x="473" y="-230.3" font-family="Times,serif" font-size="14.00">parseTree</text>
</g>
<!-- selectCommit&#45;&gt;parseTree -->
<g id="edge31" class="edge">
<title>selectCommit&#45;&gt;parseTree</title>
<path fill="none" stroke="black" d="M476.01,-287.7C475.57,-279.98 475.04,-270.71 474.55,-262.11"/>
<polygon fill="black" stroke="black" points="478.04,-261.89 473.98,-252.1 471.05,-262.29 478.04,-261.89"/>
</g>
<!-- renderTree -->
<g id="node27" class="node">
<title>renderTree</title>
<polygon fill="none" stroke="black" points="420.5,-252 345.5,-252 345.5,-216 420.5,-216 420.5,-252"/>
<text text-anchor="middle" x="383" y="-230.3" font-family="Times,serif" font-size="14.00">renderTree</text>
</g>
<!-- selectCommit&#45;&gt;renderTree -->
<g id="edge32" class="edge">
<title>selectCommit&#45;&gt;renderTree</title>
<path fill="none" stroke="black" d="M453.76,-287.7C441.81,-278.8 427.08,-267.82 414.15,-258.2"/>
<polygon fill="black" stroke="black" points="416.08,-255.27 405.97,-252.1 411.9,-260.88 416.08,-255.27"/>
</g>
<!-- updateLoadMoreButton&#45;&gt;reportException -->
<g id="edge27" class="edge">
<title>updateLoadMoreButton&#45;&gt;reportException</title>
<path fill="none" stroke="black" d="M276.3,-287.85C262.01,-277.49 243.44,-264.01 227,-252 196.49,-229.7 161.75,-204.13 137.34,-186.14"/>
<polygon fill="black" stroke="black" points="139.29,-183.22 129.17,-180.1 135.14,-188.86 139.29,-183.22"/>
</g>
<!-- renderTree&#45;&gt;reportException -->
<g id="edge33" class="edge">
<title>renderTree&#45;&gt;reportException</title>
<path fill="none" stroke="black" d="M345.42,-218.96C342.25,-217.91 339.08,-216.91 336,-216 279.79,-199.42 214.61,-184.83 168.02,-175.17"/>
<polygon fill="black" stroke="black" points="168.57,-171.71 158.07,-173.13 167.16,-178.57 168.57,-171.71"/>
</g>
<!-- renderMarkdown -->
<g id="node28" class="node">
<title>renderMarkdown</title>
<polygon fill="none" stroke="black" points="838.5,-252 727.5,-252 727.5,-216 838.5,-216 838.5,-252"/>
<text text-anchor="middle" x="783" y="-230.3" font-family="Times,serif" font-size="14.00">renderMarkdown</text>
</g>
<!-- resolveRelativePath -->
<g id="node29" class="node">
<title>resolveRelativePath</title>
<polygon fill="none" stroke="black" points="849.5,-180 724.5,-180 724.5,-144 849.5,-144 849.5,-180"/>
<text text-anchor="middle" x="787" y="-158.3" font-family="Times,serif" font-size="14.00">resolveRelativePath</text>
</g>
<!-- renderMarkdown&#45;&gt;resolveRelativePath -->
<g id="edge34" class="edge">
<title>renderMarkdown&#45;&gt;resolveRelativePath</title>
<path fill="none" stroke="black" d="M783.99,-215.7C784.43,-207.98 784.96,-198.71 785.45,-190.11"/>
<polygon fill="black" stroke="black" points="788.95,-190.29 786.02,-180.1 781.96,-189.89 788.95,-190.29"/>
</g>
<!-- selectFile -->
<g id="node30" class="node">
<title>selectFile</title>
<polygon fill="none" stroke="black" points="921,-324 853,-324 853,-288 921,-288 921,-324"/>
<text text-anchor="middle" x="887" y="-302.3" font-family="Times,serif" font-size="14.00">selectFile</text>
</g>
<!-- renderMarkdown&#45;&gt;selectFile -->
<g id="edge35" class="edge">
<title>renderMarkdown&#45;&gt;selectFile</title>
<path fill="none" stroke="black" d="M814.31,-252.1C828.55,-261.06 845.19,-272.15 859.01,-281.86"/>
<polygon fill="black" stroke="black" points="857.03,-284.75 867.21,-287.7 861.09,-279.04 857.03,-284.75"/>
</g>
<!-- selectFile&#45;&gt;readObject -->
<g id="edge36" class="edge">
<title>selectFile&#45;&gt;readObject</title>
<path fill="none" stroke="black" d="M852.74,-297.58C795.02,-285.07 678.26,-259.76 612.27,-245.46"/>
<polygon fill="black" stroke="black" points="612.65,-241.96 602.13,-243.26 611.16,-248.8 612.65,-241.96"/>
</g>
<!-- selectFile&#45;&gt;renderMarkdown -->
<g id="edge40" class="edge">
<title>selectFile&#45;&gt;renderMarkdown</title>
<path fill="none" stroke="black" d="M855.66,-287.88C841.38,-278.89 824.68,-267.76 810.84,-258.03"/>
<polygon fill="black" stroke="black" points="812.81,-255.14 802.64,-252.19 808.75,-260.84 812.81,-255.14"/>
</g>
<!-- isImage -->
<g id="node31" class="node">
<title>isImage</title>
<polygon fill="none" stroke="black" points="917,-252 857,-252 857,-216 917,-216 917,-252"/>
<text text-anchor="middle" x="887" y="-230.3" font-family="Times,serif" font-size="14.00">isImage</text>
</g>
<!-- selectFile&#45;&gt;isImage -->
<g id="edge37" class="edge">
<title>selectFile&#45;&gt;isImage</title>
<path fill="none" stroke="black" d="M887,-287.7C887,-279.98 887,-270.71 887,-262.11"/>
<polygon fill="black" stroke="black" points="890.5,-262.1 887,-252.1 883.5,-262.1 890.5,-262.1"/>
</g>
<!-- mimeTypeFromFilename -->
<g id="node32" class="node">
<title>mimeTypeFromFilename</title>
<polygon fill="none" stroke="black" points="1091,-252 935,-252 935,-216 1091,-216 1091,-252"/>
<text text-anchor="middle" x="1013" y="-230.3" font-family="Times,serif" font-size="14.00">mimeTypeFromFilename</text>
</g>
<!-- selectFile&#45;&gt;mimeTypeFromFilename -->
<g id="edge38" class="edge">
<title>selectFile&#45;&gt;mimeTypeFromFilename</title>
<path fill="none" stroke="black" d="M917.82,-287.88C934.45,-278.64 955.16,-267.13 973.02,-257.21"/>
<polygon fill="black" stroke="black" points="975.02,-260.11 982.06,-252.19 971.62,-253.99 975.02,-260.11"/>
</g>
<!-- isText -->
<g id="node33" class="node">
<title>isText</title>
<polygon fill="none" stroke="black" points="1163,-252 1109,-252 1109,-216 1163,-216 1163,-252"/>
<text text-anchor="middle" x="1136" y="-230.3" font-family="Times,serif" font-size="14.00">isText</text>
</g>
<!-- selectFile&#45;&gt;isText -->
<g id="edge39" class="edge">
<title>selectFile&#45;&gt;isText</title>
<path fill="none" stroke="black" d="M921.18,-298.66C961.86,-290.65 1031.8,-275.4 1099.22,-251.93"/>
<polygon fill="black" stroke="black" points="1100.46,-255.21 1108.72,-248.56 1098.12,-248.61 1100.46,-255.21"/>
</g>
<!-- setTimeout -->
<g id="node34" class="node">
<title>setTimeout</title>
<polygon fill="none" stroke="black" points="1259,-252 1181,-252 1181,-216 1259,-216 1259,-252"/>
<text text-anchor="middle" x="1220" y="-230.3" font-family="Times,serif" font-size="14.00">setTimeout</text>
</g>
<!-- selectFile&#45;&gt;setTimeout -->
<g id="edge41" class="edge">
<title>selectFile&#45;&gt;setTimeout</title>
<path fill="none" stroke="black" d="M921.17,-300.41C973.26,-293.04 1075.71,-277.04 1171.07,-252.03"/>
<polygon fill="black" stroke="black" points="1172.1,-255.38 1180.86,-249.42 1170.3,-248.61 1172.1,-255.38"/>
</g>
<!-- loadPackfiles -->
<g id="node35" class="node">
<title>loadPackfiles</title>
<polygon fill="none" stroke="black" points="635.5,-540 546.5,-540 546.5,-504 635.5,-504 635.5,-540"/>
<text text-anchor="middle" x="591" y="-518.3" font-family="Times,serif" font-size="14.00">loadPackfiles</text>
</g>
<!-- loadPackfiles&#45;&gt;loadPackList -->
<g id="edge42" class="edge">
<title>loadPackfiles&#45;&gt;loadPackList</title>
<path fill="none" stroke="black" d="M591,-503.7C591,-495.98 591,-486.71 591,-478.11"/>
<polygon fill="black" stroke="black" points="594.5,-478.1 591,-468.1 587.5,-478.1 594.5,-478.1"/>
</g>
<!-- loadPackfiles&#45;&gt;loadPack -->
<g id="edge43" class="edge">
<title>loadPackfiles&#45;&gt;loadPack</title>
<path fill="none" stroke="black" d="M616.69,-503.88C630.29,-494.81 647.17,-483.55 661.86,-473.76"/>
<polygon fill="black" stroke="black" points="663.84,-476.65 670.22,-468.19 659.95,-470.82 663.84,-476.65"/>
</g>
<!-- loadRepo -->
<g id="node36" class="node">
<title>loadRepo</title>
<polygon fill="none" stroke="black" points="539,-612 471,-612 471,-576 539,-576 539,-612"/>
<text text-anchor="middle" x="505" y="-590.3" font-family="Times,serif" font-size="14.00">loadRepo</text>
</g>
<!-- loadRepo&#45;&gt;loadRefs -->
<g id="edge45" class="edge">
<title>loadRepo&#45;&gt;loadRefs</title>
<path fill="none" stroke="black" d="M493.38,-575.7C487.86,-567.47 481.15,-557.48 475.07,-548.42"/>
<polygon fill="black" stroke="black" points="477.96,-546.46 469.48,-540.1 472.15,-550.36 477.96,-546.46"/>
</g>
<!-- loadRepo&#45;&gt;loadPackfiles -->
<g id="edge44" class="edge">
<title>loadRepo&#45;&gt;loadPackfiles</title>
<path fill="none" stroke="black" d="M526.26,-575.7C537.09,-566.88 550.42,-556.03 562.16,-546.47"/>
<polygon fill="black" stroke="black" points="564.44,-549.13 569.99,-540.1 560.02,-543.7 564.44,-549.13"/>
</g>
<!-- init -->
<g id="node38" class="node">
<title>init</title>
<polygon fill="none" stroke="black" points="54,-252 0,-252 0,-216 54,-216 54,-252"/>
<text text-anchor="middle" x="27" y="-230.3" font-family="Times,serif" font-size="14.00">init</text>
</g>
<!-- init&#45;&gt;reportException -->
<g id="edge47" class="edge">
<title>init&#45;&gt;reportException</title>
<path fill="none" stroke="black" d="M46.53,-215.7C56.38,-206.97 68.49,-196.24 79.2,-186.75"/>
<polygon fill="black" stroke="black" points="81.53,-189.36 86.7,-180.1 76.89,-184.12 81.53,-189.36"/>
</g>
</g>
</svg>
